<?xml version="1.0" encoding="UTF-8" standalone="no"?>
<!-- Created with Inkscape (http://www.inkscape.org/) -->

<svg
   width="66.145836mm"
   height="66.145836mm"
   viewBox="0 0 66.145836 66.145836"
   version="1.1"
   id="svg1"
   xml:space="preserve"
   xmlns="http://www.w3.org/2000/svg"
   xmlns:svg="http://www.w3.org/2000/svg"><defs
     id="defs1" /><g
     id="layer1"
     transform="translate(22.962042,-115.35834)"><g
       id="layer1-4"
       transform="translate(-236.99039,45.508363)"><g
         id="g6716"
         transform="translate(190.68999,2.2922584)"><path
           style="fill:#000000;stroke-width:0.135603"
           d="m 35.920356,130.86613 c -5.897249,-1.55506 -10.875525,-2.9342 -11.062834,-3.06473 -0.890484,-0.6206 -1.39109,-1.44845 -1.516994,-2.50866 -0.05174,-0.43564 0.817768,-6.10128 3.113515,-20.2875 1.751912,-10.825671 3.244249,-19.927214 3.316303,-20.225644 0.07205,-0.29843 0.971966,-2.805465 1.999804,-5.571189 l 1.868796,-5.028587 v -2.780206 -2.780206 l 0.442923,-0.530847 0.442922,-0.530848 h 21.886774 21.886772 l 0.442922,0.530848 0.442926,0.530847 v 2.780206 2.780206 l 1.868794,5.028587 c 1.027839,2.765724 1.927565,5.272759 1.999388,5.571189 0.07182,0.29843 1.563927,9.399973 3.315779,20.225644 2.289572,14.14851 3.165154,19.85301 3.113934,20.2875 -0.137866,1.16946 -0.866381,2.23655 -1.82286,2.67004 -0.213495,0.0968 -5.191771,1.43644 -11.062835,2.97707 -8.514532,2.23431 -10.786026,2.78444 -11.224987,2.71858 -0.752121,-0.11287 -1.485134,-0.54891 -1.938696,-1.15328 -0.27001,-0.35979 -1.32363,-3.24433 -3.661147,-10.02329 -1.80512,-5.23497 -3.317114,-9.51813 -3.35999,-9.51813 -0.04288,0 -1.559586,4.30079 -3.370468,9.55729 -2.917296,8.46814 -3.348717,9.62493 -3.785704,10.15081 -0.53599,0.64501 -1.374956,1.04731 -2.150601,1.03125 -0.25419,-0.005 -5.287186,-1.28189 -11.184436,-2.83695 z m 11.782513,0.50185 c 0.252243,-0.19406 0.79343,-1.43639 0.672856,-1.54459 -0.02806,-0.0252 -5.116641,-1.37015 -11.307947,-2.98882 -6.191306,-1.61867 -11.354847,-2.97454 -11.474536,-3.01304 -0.173034,-0.0556 -0.235293,0.0595 -0.303902,0.56199 -0.10766,0.78854 -0.0012,1.1717 0.407201,1.46561 0.315231,0.22687 20.770661,5.69206 21.402509,5.71823 0.179869,0.007 0.451587,-0.0823 0.603819,-0.19938 z m 28.465426,-2.48834 c 5.67953,-1.48569 10.516694,-2.79622 10.749256,-2.91229 0.551171,-0.27507 0.73261,-0.73149 0.619661,-1.55877 -0.07166,-0.52489 -0.133483,-0.643 -0.307325,-0.58722 -0.266122,0.0854 -14.676279,3.85255 -15.243922,3.98511 -0.791247,0.18479 -1.468588,-1.01512 -0.955979,-1.69353 0.219478,-0.29046 0.343869,-0.32619 8.736453,-2.50885 3.985207,-1.03644 7.264739,-1.8981 7.287846,-1.9148 0.02311,-0.0167 -1.278342,-8.20612 -2.892118,-18.19872 l -2.934136,-18.168373 -1.788246,-4.83194 -1.78825,-4.831939 -8.614441,-0.03654 c -4.737942,-0.0201 -8.614441,-0.01305 -8.614441,0.01566 0,0.0287 0.225589,0.588739 0.501316,1.244521 0.571843,1.360068 1.310141,3.794827 1.310141,4.320579 0,0.786558 -1.108961,1.254866 -1.589751,0.671346 -0.113618,-0.13789 -0.41584,-0.953279 -0.67161,-1.811977 C 59.537209,78.599682 58.932228,77.12053 58.3315,76.049139 L 58.072527,75.58726 h -1.660962 -1.660963 l -0.258972,0.461876 c -0.600727,1.071392 -1.205708,2.550544 -1.641247,4.012768 -0.255772,0.858698 -0.557997,1.674088 -0.671612,1.811977 -0.48079,0.583521 -1.589751,0.115212 -1.589751,-0.671345 0,-0.525752 0.738299,-2.960511 1.310141,-4.320579 0.275725,-0.655782 0.501318,-1.215363 0.501318,-1.243514 0,-0.02815 -2.252484,-0.05118 -5.005519,-0.05118 -4.961203,0 -5.00817,-0.0027 -5.304985,-0.309005 -0.489743,-0.505341 -0.382291,-1.268553 0.227347,-1.614816 0.315936,-0.179446 2.741196,-0.207918 17.710732,-0.207918 H 77.372727 V 71.536957 69.618393 H 56.411565 35.450404 v 1.918564 1.918564 h 1.339286 c 1.534066,0 2.057387,0.150886 2.265796,0.653282 0.205424,0.495202 0.186091,0.675276 -0.118107,1.100038 -0.25965,0.362555 -0.302827,0.371337 -2.015734,0.409984 l -1.7504,0.03949 -1.788074,4.83194 -1.788074,4.831938 -2.934134,18.168377 c -1.613775,9.9926 -2.915229,18.18224 -2.89212,18.19921 0.02311,0.017 5.268301,1.39823 11.655984,3.06949 7.110973,1.86051 11.656805,2.98684 11.72445,2.905 0.06077,-0.0735 1.520237,-4.2266 3.243269,-9.22908 1.756283,-5.09901 3.252117,-9.23591 3.404372,-9.41517 0.347442,-0.40908 0.881851,-0.40908 1.229294,0 0.152254,0.17926 1.648086,4.31616 3.404372,9.41517 1.723033,5.00248 3.182452,9.15551 3.243158,9.22896 0.06785,0.0821 0.775122,-0.0411 1.836068,-0.31976 0.94913,-0.24932 1.815263,-0.4533 1.924736,-0.4533 0.386434,0 0.880887,0.56782 0.880887,1.01158 0,0.74639 -0.413336,1.01872 -2.231974,1.47056 -0.90735,0.22543 -1.648445,0.47863 -1.646882,0.56267 0.0014,0.084 0.11249,0.41802 0.2465,0.74217 0.249022,0.60236 0.550795,0.89084 0.939943,0.89852 0.12037,0.003 4.865744,-1.21125 10.545275,-2.69695 z M 64.304346,117.22631 c -34.44392,-55.791981 -17.22196,-27.89599 0,0 z m 4.740739,-2.97194 c -37.604412,-53.810688 -18.802206,-26.905343 0,0 z m 2.82315,3.67684 c -39.486512,-56.261915 -19.743256,-28.130958 0,0 z"
           id="path2593" /><path
           style="fill:#0ea5e9;fill-opacity:1;stroke-width:0;stroke-linejoin:bevel;paint-order:stroke fill markers"
           d="m 38.250469,443.2073 c -26.469574,0.18895 -53.160398,-0.15467 -79.491821,0.36681 0.136846,5.07183 -0.265928,10.36205 0.193663,15.30326 4.086866,0.72216 9.000409,-0.87724 12.649691,1.45697 2.748596,2.11527 0.01858,5.96445 -2.99473,5.41745 -3.617161,0.39737 -7.405439,0.2457 -10.973411,0.73617 -4.499751,12.62059 -9.688659,25.05905 -13.766754,37.79126 -7.103067,45.0855 -14.881792,90.07451 -21.441827,135.23981 -0.516063,2.72835 4.152734,1.61782 5.554743,2.80077 27.129145,7.08444 54.131121,14.78315 81.505916,20.86866 2.885005,1.05693 2.19731,-3.88822 3.4908,-5.27757 7.959913,-21.54919 14.802308,-43.53971 23.262707,-64.8837 0.92465,-2.47755 4.236025,-0.88024 4.42861,1.2928 8.9911,22.46594 15.8283,45.77991 24.711977,68.28756 1.538778,2.16402 4.825193,-0.32846 6.914667,-0.20388 2.96685,-0.15228 6.910378,-2.7607 9.565972,-0.55282 1.268268,2.20775 0.627321,5.48528 -2.229053,5.96509 -3.454119,1.73909 -8.224363,1.22052 -11.018302,4.00409 -0.12709,3.25729 2.890153,8.11684 6.691008,5.96381 26.034205,-6.80886 52.252555,-13.07646 78.013055,-20.82973 3.32991,-1.068 4.26429,-6.60226 1.28254,-8.35061 -19.45495,4.19082 -38.53973,10.5223 -58.032366,14.34392 -3.61137,0.72388 -4.321193,-5.61739 -1.005511,-6.22673 19.335157,-6.08291 39.402127,-10.20088 58.740327,-16.04329 -6.93253,-46.08465 -14.6978,-92.05203 -22.06096,-138.07311 -4.58334,-11.85336 -8.55064,-24.04146 -13.5898,-35.66744 -6.57169,-1.60871 -13.63644,-0.48614 -20.375682,-0.89501 -15.044956,0.029 -30.100623,-0.12726 -45.13902,0.21014 1.994192,6.96899 5.828774,14.12263 6.394743,21.51973 -0.161657,2.60078 -4.363029,4.29129 -5.276365,1.15557 -3.329689,-7.56371 -5.230484,-15.84894 -9.619051,-22.89847 -4.339428,0.077 -8.766114,-0.15164 -13.052406,0.11159 -4.31395,7.33243 -6.067293,15.86214 -9.955077,23.31016 -1.723379,2.91995 -6.168004,-0.35466 -4.803109,-3.11144 1.305926,-6.69059 4.642687,-12.97698 6.095909,-19.51898 -4.417262,-1.52677 -9.55871,-0.37443 -14.2092575,-0.78799 -7.917696,-0.28692 -16.0894605,0.52094 -23.8616555,-0.86392 -3.232404,-1.67789 -0.488781,-7.41926 2.811329,-5.96253 43.293417,0 86.586828,0 129.880242,0 0.32175,-5.19142 0.33868,-10.9746 0,-16.16513 -26.430578,0.0556 -52.86116,0.11115 -79.291741,0.16673 z M 113.8267,588.18561 c -1.04281,1.19571 -0.46219,0.18493 0.20264,-0.24497 z m -22.355954,-0.2129 c -0.806687,0.92057 -1.500804,0.38846 0,0 z m 22.606044,4.76719 c 1.19572,1.04281 0.18494,0.46219 -0.24496,-0.20264 z m -39.403469,4.66973 c -2.329431,2.11754 -1.670866,1.16764 0.0064,-0.0987 0.145975,-0.12094 1.086621,-0.69822 -0.0064,0.0987 z m 22.736866,-0.30139 c -1.834118,1.2354 -2.5887,1.40645 -0.596385,0.20264 0.186898,-0.0797 0.383417,-0.21528 0.596385,-0.20264 z m 10.230823,16.89361 c -0.89315,1.12847 -1.71088,1.68178 -0.30397,0.26164 -0.11065,0.1216 0.56454,-0.56711 0.30397,-0.26164 z m 20.52961,1.17353 c -0.77356,0.74242 1.23921,-1.25625 0,0 z m -41.411931,4.35037 c 0.509457,0.23069 -1.864863,0.0458 0,0 z m 9.094491,3.60651 c 0.982817,1.05505 -1.705058,-1.6827 0,0 z"
           id="path2"
           transform="matrix(0.26458333,0,0,0.26458333,46.3004,-47.800621)" /><rect
           style="fill:#ffffff;fill-opacity:1;stroke:none;stroke-width:0.881329;stroke-opacity:1"
           id="rect5975"
           width="42.29475"
           height="4.5303097"
           x="35.372692"
           y="69.256401" /><path
           style="fill:#ffffff;fill-opacity:1;stroke-width:0;stroke-linejoin:bevel;paint-order:stroke fill markers"
           d="m -78.724714,648.48243 c -1.126119,0.61687 -0.840634,2.3529 -1.006196,3.44588 -0.162412,1.90076 0.380723,4.29463 2.507732,4.81498 10.847197,3.41745 21.904362,6.14311 32.863988,9.18033 15.130689,4.02978 30.248765,8.13144 45.4525915,11.86704 1.8949252,0.39719 4.5231921,0.39436 5.3196703,-1.78581 0.7357688,-1.5206 1.8572177,-3.21094 1.661936,-4.89443 -28.4278278,-7.54856 -56.8777058,-15.03209 -85.3423468,-22.43485 -0.480653,-0.0846 -0.966014,-0.20958 -1.457375,-0.19314 z"
           id="path3"
           transform="matrix(0.26458333,0,0,0.26458333,46.3004,-47.800621)" /></g><g
         style="fill:none;stroke:currentColor;stroke-width:2;stroke-linecap:round;stroke-linejoin:round"
         id="g3"
         transform="matrix(0.69753735,0,0,0.69753735,256.03669,107.03475)"><path
           d="m 10,13 a 5,5 0 0 0 7.54,0.54 l 3,-3 A 5,5 0 0 0 13.47,3.47 l -1.72,1.71"
           id="path1"
           style="fill:none;fill-opacity:1;stroke:#ffffff;stroke-opacity:1" /><path
           d="M 14,11 A 5,5 0 0 0 6.46,10.46 l -3,3 a 5,5 0 0 0 7.07,7.07 l 1.71,-1.71"
           id="path2-8"
           style="fill:none;stroke:#ffffff;stroke-opacity:1" /></g></g></g></svg>
