<?xml version="1.0" encoding="UTF-8" standalone="no"?>
<!-- Created with Inkscape (http://www.inkscape.org/) -->

<svg
        width="250"
        height="250"
        viewBox="0 0 66.145832 66.145833"
        version="1.1"
        id="svg5"
        xml:space="preserve"
        xmlns="http://www.w3.org/2000/svg"
>
    <defs
            id="defs2"/>
    <g
            id="layer1"
            transform="translate(-23.33836,-67.557713)"><g
       id="g6716"><path
         style="fill:#000000;stroke-width:0.135603"
         d="m 35.920356,130.86613 c -5.897249,-1.55506 -10.875525,-2.9342 -11.062834,-3.06473 -0.890484,-0.6206 -1.39109,-1.44845 -1.516994,-2.50866 -0.05174,-0.43564 0.817768,-6.10128 3.113515,-20.2875 1.751912,-10.825671 3.244249,-19.927214 3.316303,-20.225644 0.07205,-0.29843 0.971966,-2.805465 1.999804,-5.571189 l 1.868796,-5.028587 v -2.780206 -2.780206 l 0.442923,-0.530847 0.442922,-0.530848 h 21.886774 21.886772 l 0.442922,0.530848 0.442926,0.530847 v 2.780206 2.780206 l 1.868794,5.028587 c 1.027839,2.765724 1.927565,5.272759 1.999388,5.571189 0.07182,0.29843 1.563927,9.399973 3.315779,20.225644 2.289572,14.14851 3.165154,19.85301 3.113934,20.2875 -0.137866,1.16946 -0.866381,2.23655 -1.82286,2.67004 -0.213495,0.0968 -5.191771,1.43644 -11.062835,2.97707 -8.514532,2.23431 -10.786026,2.78444 -11.224987,2.71858 -0.752121,-0.11287 -1.485134,-0.54891 -1.938696,-1.15328 -0.27001,-0.35979 -1.32363,-3.24433 -3.661147,-10.02329 -1.80512,-5.23497 -3.317114,-9.51813 -3.35999,-9.51813 -0.04288,0 -1.559586,4.30079 -3.370468,9.55729 -2.917296,8.46814 -3.348717,9.62493 -3.785704,10.15081 -0.53599,0.64501 -1.374956,1.04731 -2.150601,1.03125 -0.25419,-0.005 -5.287186,-1.28189 -11.184436,-2.83695 z m 11.782513,0.50185 c 0.252243,-0.19406 0.79343,-1.43639 0.672856,-1.54459 -0.02806,-0.0252 -5.116641,-1.37015 -11.307947,-2.98882 -6.191306,-1.61867 -11.354847,-2.97454 -11.474536,-3.01304 -0.173034,-0.0556 -0.235293,0.0595 -0.303902,0.56199 -0.10766,0.78854 -0.0012,1.1717 0.407201,1.46561 0.315231,0.22687 20.770661,5.69206 21.402509,5.71823 0.179869,0.007 0.451587,-0.0823 0.603819,-0.19938 z m 28.465426,-2.48834 c 5.67953,-1.48569 10.516694,-2.79622 10.749256,-2.91229 0.551171,-0.27507 0.73261,-0.73149 0.619661,-1.55877 -0.07166,-0.52489 -0.133483,-0.643 -0.307325,-0.58722 -0.266122,0.0854 -14.676279,3.85255 -15.243922,3.98511 -0.791247,0.18479 -1.468588,-1.01512 -0.955979,-1.69353 0.219478,-0.29046 0.343869,-0.32619 8.736453,-2.50885 3.985207,-1.03644 7.264739,-1.8981 7.287846,-1.9148 0.02311,-0.0167 -1.278342,-8.20612 -2.892118,-18.19872 l -2.934136,-18.168373 -1.788246,-4.83194 -1.78825,-4.831939 -8.614441,-0.03654 c -4.737942,-0.0201 -8.614441,-0.01305 -8.614441,0.01566 0,0.0287 0.225589,0.588739 0.501316,1.244521 0.571843,1.360068 1.310141,3.794827 1.310141,4.320579 0,0.786558 -1.108961,1.254866 -1.589751,0.671346 -0.113618,-0.13789 -0.41584,-0.953279 -0.67161,-1.811977 C 59.537209,78.599682 58.932228,77.12053 58.3315,76.049139 L 58.072527,75.58726 h -1.660962 -1.660963 l -0.258972,0.461876 c -0.600727,1.071392 -1.205708,2.550544 -1.641247,4.012768 -0.255772,0.858698 -0.557997,1.674088 -0.671612,1.811977 -0.48079,0.583521 -1.589751,0.115212 -1.589751,-0.671345 0,-0.525752 0.738299,-2.960511 1.310141,-4.320579 0.275725,-0.655782 0.501318,-1.215363 0.501318,-1.243514 0,-0.02815 -2.252484,-0.05118 -5.005519,-0.05118 -4.961203,0 -5.00817,-0.0027 -5.304985,-0.309005 -0.489743,-0.505341 -0.382291,-1.268553 0.227347,-1.614816 0.315936,-0.179446 2.741196,-0.207918 17.710732,-0.207918 H 77.372727 V 71.536957 69.618393 H 56.411565 35.450404 v 1.918564 1.918564 h 1.339286 c 1.534066,0 2.057387,0.150886 2.265796,0.653282 0.205424,0.495202 0.186091,0.675276 -0.118107,1.100038 -0.25965,0.362555 -0.302827,0.371337 -2.015734,0.409984 l -1.7504,0.03949 -1.788074,4.83194 -1.788074,4.831938 -2.934134,18.168377 c -1.613775,9.9926 -2.915229,18.18224 -2.89212,18.19921 0.02311,0.017 5.268301,1.39823 11.655984,3.06949 7.110973,1.86051 11.656805,2.98684 11.72445,2.905 0.06077,-0.0735 1.520237,-4.2266 3.243269,-9.22908 1.756283,-5.09901 3.252117,-9.23591 3.404372,-9.41517 0.347442,-0.40908 0.881851,-0.40908 1.229294,0 0.152254,0.17926 1.648086,4.31616 3.404372,9.41517 1.723033,5.00248 3.182452,9.15551 3.243158,9.22896 0.06785,0.0821 0.775122,-0.0411 1.836068,-0.31976 0.94913,-0.24932 1.815263,-0.4533 1.924736,-0.4533 0.386434,0 0.880887,0.56782 0.880887,1.01158 0,0.74639 -0.413336,1.01872 -2.231974,1.47056 -0.90735,0.22543 -1.648445,0.47863 -1.646882,0.56267 0.0014,0.084 0.11249,0.41802 0.2465,0.74217 0.249022,0.60236 0.550795,0.89084 0.939943,0.89852 0.12037,0.003 4.865744,-1.21125 10.545275,-2.69695 z M 64.304346,117.22631 c -34.44392,-55.791981 -17.22196,-27.89599 0,0 z m 4.740739,-2.97194 c -37.604412,-53.810688 -18.802206,-26.905343 0,0 z m 2.82315,3.67684 c -39.486512,-56.261915 -19.743256,-28.130958 0,0 z"
         id="path2593"
    /><path
            d="m 79.661822,115.44659 c 1.944065,-1.07196 2.727958,-3.66896 1.75199,-5.80424 -0.86369,-1.88961 -2.844272,-2.81558 -4.682239,-2.19012 l -0.05072,0.0162 c -0.460357,0.15684 -0.716971,0.69344 -0.573319,1.19623 0.143652,0.50279 0.631343,0.78749 1.089109,0.62971 l 0.05072,-0.0162 c 1.025689,-0.34791 2.129263,0.16736 2.608624,1.22083 0.544128,1.19045 0.107199,2.63796 -0.976656,3.23561 l -3.862314,2.13442 c -1.083856,0.59765 -2.401745,0.11775 -2.945873,-1.07271 -0.481938,-1.0544 -0.19887,-2.33427 0.667043,-3.02704 l 0.04209,-0.035 c 0.389529,-0.31179 0.473016,-0.91144 0.190874,-1.3355 -0.282141,-0.42406 -0.829822,-0.51954 -1.215903,-0.20965 l -0.04213,0.0351 c -1.556407,1.24147 -2.063533,3.53918 -1.199843,5.4288 0.975973,2.13526 3.340421,2.99626 5.284487,1.9243 z m -13.226507,-5.55347 c -1.944061,1.07196 -2.727959,3.66897 -1.751985,5.80424 0.863694,1.88961 2.844276,2.81559 4.682247,2.19012 l 0.05081,-0.0161 c 0.460352,-0.15684 0.71697,-0.69344 0.573319,-1.19623 -0.143657,-0.50279 -0.631343,-0.78748 -1.089114,-0.6297 l -0.05081,0.0161 c -1.02568,0.34791 -2.129263,-0.16736 -2.608615,-1.22082 -0.543266,-1.1933 -0.106337,-2.64081 0.977514,-3.23846 l 3.861452,-2.13158 c 1.08386,-0.59764 2.40175,-0.11774 2.945873,1.07271 0.481942,1.05442 0.19887,2.33429 -0.667887,3.02988 l -0.04213,0.0351 c -0.389533,0.31179 -0.473015,0.91143 -0.190879,1.33549 0.282142,0.42406 0.829818,0.51953 1.215908,0.20965 l 0.04213,-0.0351 c 1.557261,-1.24431 2.064381,-3.54202 1.200692,-5.43163 -0.975974,-2.13528 -3.340422,-2.99627 -5.284487,-1.92431 z"
            id="path2590"
            style="stroke-width:0.0285315"/><path
            style="fill:#0ea5e9;fill-opacity:1;stroke:none;stroke-width:1.99737;stroke-opacity:1"
            d="m 246.24084,495.84611 c -0.53523,-0.64082 -1.31702,-1.97319 -1.73733,-2.96081 -0.64929,-1.52568 -0.59356,-1.84456 0.3706,-2.12076 12.68222,-3.633 13.45189,-4.04337 13.45189,-7.17227 0,-1.04179 -0.60377,-2.49794 -1.34172,-3.23589 -1.45289,-1.45289 -1.05971,-1.48306 -10.23791,0.78548 -2.89006,0.71433 -5.47385,1.0568 -5.74177,0.76106 -0.26792,-0.29574 -5.32317,-14.40285 -11.2339,-31.34912 -13.57489,-38.91966 -13.73614,-39.32386 -15.90504,-39.86822 -3.1478,-0.79005 -2.4299,-2.46188 -17.91401,41.71782 -4.9411,14.09807 -9.33159,26.59261 -9.75666,27.76563 l -0.77285,2.13277 -24.63418,-6.24719 c -29.21501,-7.40887 -62.280353,-16.13473 -62.689106,-16.54348 -0.306639,-0.30664 2.633246,-19.08048 14.425296,-92.11855 l 7.22178,-44.7306 6.80977,-18.35288 6.80977,-18.35287 h 6.53867 c 6.29232,0 6.58103,-0.0647 7.66308,-1.71607 0.84717,-1.29295 0.97135,-2.15129 0.50363,-3.48124 -0.88436,-2.51467 -3.2258,-3.43689 -8.75457,-3.44813 l -4.82697,-0.01 v -6.99078 -6.99078 h 78.89596 78.89595 v 6.96351 6.96352 l -66.14398,0.19371 c -72.53343,0.21242 -68.34533,-0.0469 -68.34533,4.23221 0,4.14693 0.685,4.28386 21.42972,4.28386 h 18.47029 l -1.25419,2.92589 c -2.12016,4.94612 -5.35638,15.62441 -5.35638,17.67396 0,2.62112 1.66499,4.155 4.23753,3.90384 2.00755,-0.196 2.16077,-0.44961 4.84186,-8.01411 1.52278,-4.29643 3.68772,-9.7756 4.81098,-12.17593 l 2.04226,-4.36423 6.18094,0.19174 6.18093,0.19174 1.76711,3.27537 c 0.9719,1.80146 2.88412,6.59514 4.24937,10.65262 1.36526,4.05748 2.89925,8.05135 3.40887,8.87527 1.30805,2.11474 4.5106,2.03117 5.94309,-0.15509 0.93956,-1.43395 0.97381,-2.11803 0.2584,-5.15987 -0.68491,-2.91206 -3.76268,-11.99515 -5.64605,-16.66251 -0.4479,-1.10999 1.21677,-1.16248 31.67079,-0.99868 l 32.14354,0.17289 6.78478,18.30918 6.78477,18.30919 8.09057,50.26705 c 12.00183,74.56783 13.85718,86.20601 13.76684,86.35605 -0.0452,0.075 -12.20468,3.32306 -27.02112,7.21783 -33.25295,8.74115 -33.53179,8.83066 -33.8185,10.85621 -0.12189,0.86115 -0.0435,2.27563 0.17431,3.14328 0.88234,3.51551 1.19892,3.46953 32.42343,-4.70888 16.16453,-4.23386 29.52826,-7.55972 29.69717,-7.39081 0.6823,0.68229 0.38263,5.01025 -0.41332,5.9693 -0.46851,0.56453 -2.39967,1.47632 -4.29146,2.02622 -10.25834,2.98185 -76.65704,20.36749 -77.78688,20.36749 -0.19117,0 -0.7855,-0.52431 -1.32072,-1.16513 z m 16.35085,-50.07705 c 2.01232,-0.76509 2.86628,-3.44689 1.82518,-5.73185 -0.66829,-1.46674 -1.13083,-1.61538 -5.02683,-1.61538 -3.63828,0 -4.60051,-0.26059 -6.32724,-1.71354 -3.00455,-2.52816 -3.88978,-6.11211 -2.44446,-9.89663 1.23888,-3.24397 2.51026,-4.17801 14.43308,-10.60351 6.38841,-3.44287 7.93209,-3.684 11.1245,-1.73764 4.95922,3.02356 5.38913,10.13719 0.86033,14.2357 -2.63882,2.3881 -1.16408,7.71826 2.13547,7.71826 2.23781,0 6.29751,-4.92417 7.51637,-9.11689 3.42762,-11.79057 -5.17709,-23.43513 -16.20078,-21.92416 -3.15418,0.43232 -19.05369,8.81324 -22.55987,11.89171 -8.66805,7.61065 -6.01884,24.20028 4.54127,28.43793 2.04732,0.82156 8.02246,0.85462 10.12298,0.056 z m 22.04641,-0.24065 c 4.37701,-1.70131 18.01715,-9.55514 19.97005,-11.49852 8.62957,-8.58751 5.19955,-25.09548 -5.85759,-28.19129 -6.63211,-1.85687 -12.45544,0.46794 -11.46728,4.57801 0.62873,2.61509 2.05611,3.34131 5.71543,2.90792 3.76754,-0.44621 5.91616,0.63111 7.96706,3.99469 1.74112,2.85552 1.65724,6.39741 -0.2174,9.17919 -1.89669,2.8145 -17.73585,11.8881 -20.78424,11.90643 -3.16004,0.019 -6.02383,-2.14597 -7.31671,-5.53132 -1.36689,-3.57914 -0.75009,-6.23037 2.35993,-10.14382 2.24993,-2.83116 2.35091,-3.42819 0.9243,-5.46496 -1.63416,-2.33309 -4.40688,-1.94764 -6.96734,0.96856 -3.04476,3.46779 -4.15837,6.5564 -4.15837,11.53328 0,5.01632 1.11352,8.06539 4.25013,11.63779 3.92249,4.46747 10.33327,6.16419 15.58203,4.12404 z"
            id="path4315"
            transform="scale(0.26458333)"/><path
            style="fill:#e6e6e6;fill-opacity:1;stroke:none;stroke-width:1.99737;stroke-opacity:1"
            d="m 163.45112,493.29057 c -14.84473,-3.84463 -46.39213,-12.30694 -58.58941,-15.71609 -4.02802,-1.12583 -7.698177,-2.51348 -8.155907,-3.08366 -0.939813,-1.1707 -1.128502,-5.18102 -0.268771,-5.71236 0.599277,-0.37038 84.954118,21.64959 85.667018,22.3625 0.49276,0.49276 -1.52281,4.64777 -2.60046,5.36074 -1.05128,0.69553 -0.68619,0.76857 -16.05247,-3.21113 z"
            id="path5838"
            transform="scale(0.26458333)"/><path
            style="fill:#e6e6e6;fill-opacity:1;stroke:none;stroke-width:1.99737;stroke-opacity:1"
            d="m 252.6668,444.82083 c -7.1619,-3.12871 -10.9502,-11.58608 -8.68303,-19.38486 1.61362,-5.55067 4.42462,-8.17367 14.94117,-13.94191 11.19195,-6.13869 13.68944,-6.67924 18.9556,-4.10275 4.13955,2.0253 6.84685,5.19857 8.16123,9.56594 1.19403,3.96743 1.15245,6.5435 -0.16817,10.4193 -1.05485,3.09581 -5.31657,8.38213 -6.75751,8.38213 -1.23601,0 -2.81379,-2.02211 -2.81379,-3.60621 0,-0.83254 0.64056,-2.08446 1.42346,-2.78204 6.2219,-5.54376 2.63246,-16.90307 -5.34401,-16.91186 -2.47716,-0.003 -16.97572,7.55307 -20.1989,10.5265 -3.91742,3.61385 -4.01016,9.75881 -0.20814,13.79013 2.05524,2.17919 2.4306,2.31242 6.51483,2.31242 4.73104,0 6.08925,0.81829 5.71322,3.44208 -0.11965,0.8349 -0.96657,1.8956 -1.88203,2.35709 -2.14807,1.08288 -7.1016,1.04904 -9.65393,-0.066 z"
            id="path5842"
            transform="scale(0.26458333)"/><path
            style="fill:#ffffff;fill-opacity:1;stroke:none;stroke-width:1.99737;stroke-opacity:1"
            d="m 273.84036,444.08476 c -6.07945,-3.07896 -9.66621,-10.73013 -8.16674,-17.42105 0.87036,-3.88372 1.63873,-5.36286 4.18128,-8.04909 2.30732,-2.43769 4.72551,-2.80558 5.75818,-0.876 1.02157,1.90882 0.88326,2.41246 -1.32633,4.82964 -3.89133,4.25693 -3.98133,10.34091 -0.20878,14.11346 3.74678,3.74678 6.62445,3.29624 17.53746,-2.74575 9.52401,-5.27296 11.3199,-7.19184 11.31592,-12.09086 -0.003,-3.4538 -1.66212,-6.7067 -4.30418,-8.43784 -1.25218,-0.82046 -2.61506,-1.03128 -5.11436,-0.79113 -2.7293,0.26225 -3.6545,0.0802 -4.6497,-0.91502 -1.54471,-1.54471 -1.5492,-2.0476 -0.0349,-3.91761 0.86458,-1.06771 2.14613,-1.58134 4.51307,-1.80877 13.28515,-1.27654 20.74798,17.03365 11.02273,27.04445 -1.33584,1.37506 -6.47347,4.7031 -11.41695,7.39564 -10.84525,5.90702 -13.63241,6.44237 -19.10665,3.66993 z"
            id="path5844"
            transform="scale(0.26458333)"/><path
            style="fill:#ffffff;fill-opacity:1;stroke:none;stroke-width:1.99737;stroke-opacity:1"
            d="m 176.74341,496.27706 c -1.47765,-0.26353 -10.7654,-2.62919 -20.63945,-5.25701 -9.87405,-2.62782 -18.5647,-4.84533 -19.31255,-4.92778 -0.74786,-0.0825 -1.64668,-0.32385 -1.99737,-0.53643 -0.35069,-0.21258 -7.48889,-2.23355 -15.86267,-4.49104 -19.327707,-5.21058 -22.36691,-6.32454 -22.470898,-8.23624 -0.08604,-1.58178 0.100457,-3.33799 0.386125,-3.63601 0.208144,-0.21715 23.981953,5.82042 49.626913,12.60319 9.70387,2.56656 18.25528,4.73682 19.00314,4.82281 0.74786,0.086 1.64667,0.33089 1.99736,0.54422 0.3507,0.21334 3.70858,1.21096 7.46196,2.21695 3.75338,1.00599 6.81178,2.1609 6.79643,2.56648 -0.0153,0.40558 -0.53966,1.65375 -1.16514,2.77371 -1.06478,1.9066 -1.30834,2.00578 -3.82385,1.55715 z"
            id="path5915"
            transform="scale(0.26458333)"/><path
            style="fill:#ffffff;fill-opacity:1;stroke:none;stroke-width:1.99737;stroke-opacity:1"
            d="m 251.33522,443.55622 c -5.2118,-2.93863 -8.40543,-10.04991 -7.34149,-16.34736 1.07164,-6.34295 5.53427,-10.42635 18.84292,-17.24167 7.63701,-3.9109 10.52417,-4.35158 14.66602,-2.23857 5.31777,2.71292 8.07379,6.81266 8.61857,12.82061 0.42481,4.68486 -0.80874,8.34325 -4.11814,12.2134 -1.91848,2.24356 -2.46831,2.54754 -3.4897,1.92937 -1.71621,-1.03869 -1.88234,-3.4742 -0.35178,-5.15702 2.10947,-2.31932 2.8012,-4.1502 2.8012,-7.41426 0,-5.67625 -3.40861,-9.66904 -8.2457,-9.6589 -1.95764,0.004 -4.5956,0.9471 -9.24026,3.30315 -11.89906,6.03591 -14.4719,8.5864 -14.4719,14.34618 0,4.50637 3.73196,9.20815 7.09415,8.93772 1.0417,-0.0838 2.3434,0.0258 2.89268,0.24345 0.54928,0.21769 1.7477,0.48539 2.66315,0.59489 2.1051,0.2518 2.70537,3.0282 0.93467,4.32297 -1.95651,1.43064 -8.20076,1.0678 -11.25439,-0.65396 z"
            id="path5917"
            transform="scale(0.26458333)"/><path
            style="fill:#ffffff;fill-opacity:1;stroke:none;stroke-width:1.99737;stroke-opacity:1"
            d="m 274.63782,443.97528 c -2.94922,-1.55205 -5.59841,-4.21021 -7.19357,-7.21792 -1.94973,-3.67625 -1.95154,-10.29914 -0.004,-13.98156 1.93606,-3.66037 4.38681,-5.81844 6.3,-5.5476 2.30152,0.32582 2.27929,2.55203 -0.0548,5.48914 -3.64281,4.58388 -3.5318,10.35494 0.27237,14.15911 3.45033,3.45033 6.44495,3.14685 15.77741,-1.59894 4.1463,-2.1085 8.76664,-5.03098 10.34547,-6.54376 2.70913,-2.5958 2.85299,-2.92572 2.85299,-6.54267 0,-6.84406 -2.60017,-9.735 -8.75584,-9.735 -3.85142,0 -5.89151,-1.04086 -5.89151,-3.00586 0,-1.61248 2.83689,-2.98624 6.16676,-2.98624 10.41908,0 17.12157,12.39474 12.12478,22.422 -2.01658,4.04676 -6.43585,7.36891 -16.82344,12.6469 -7.63787,3.88084 -11.26871,4.46747 -15.11677,2.4424 z"
            id="path5919"
            transform="scale(0.26458333)"/><rect
            style="fill:#ffffff;fill-opacity:1;stroke:none;stroke-width:0.820748;stroke-opacity:1"
            id="rect5975"
            width="41.92527"
            height="3.9635229"
            x="35.495548"
            y="69.625885"/></g></g></svg>
